<svg width="115" height="17" viewBox="0 0 115 17" fill="none" xmlns="http://www.w3.org/2000/svg">
<g id="Group 12">
<g id="Group">
<path id="Vector" d="M4.09194 16.9354C3.65449 17.1598 3.1581 16.7665 3.2465 16.2645L4.18713 10.904L0.194534 7.10066C-0.17832 6.74481 0.0154734 6.0943 0.515257 6.02403L6.06614 5.23526L8.54126 0.331489C8.76452 -0.110496 9.36856 -0.110496 9.59182 0.331489L12.0669 5.23526L17.6178 6.02403C18.1176 6.0943 18.3114 6.74481 17.9374 7.10066L13.9459 10.904L14.8866 16.2645C14.975 16.7665 14.4786 17.1598 14.0411 16.9354L9.06484 14.3787L4.0908 16.9354H4.09194Z" fill="#FFAE00"/>
</g>
<g id="Group_2">
<path id="Vector_2" d="M28.0919 16.9354C27.6545 17.1598 27.1581 16.7665 27.2465 16.2645L28.1871 10.904L24.1945 7.10066C23.8217 6.74481 24.0155 6.0943 24.5153 6.02403L30.0661 5.23526L32.5413 0.331489C32.7645 -0.110496 33.3686 -0.110496 33.5918 0.331489L36.0669 5.23526L41.6178 6.02403C42.1176 6.0943 42.3114 6.74481 41.9374 7.10066L37.9459 10.904L38.8866 16.2645C38.975 16.7665 38.4786 17.1598 38.0411 16.9354L33.0648 14.3787L28.0908 16.9354H28.0919Z" fill="#FFAE00"/>
</g>
<g id="Group_3">
<path id="Vector_3" d="M52.0919 16.9354C51.6545 17.1598 51.1581 16.7665 51.2465 16.2645L52.1871 10.904L48.1945 7.10066C47.8217 6.74481 48.0155 6.0943 48.5153 6.02403L54.0661 5.23526L56.5413 0.331489C56.7645 -0.110496 57.3686 -0.110496 57.5918 0.331489L60.0669 5.23526L65.6178 6.02403C66.1176 6.0943 66.3114 6.74481 65.9374 7.10066L61.9459 10.904L62.8866 16.2645C62.975 16.7665 62.4786 17.1598 62.0411 16.9354L57.0648 14.3787L52.0908 16.9354H52.0919Z" fill="#FFAE00"/>
</g>
<g id="Group_4">
<path id="Vector_4" d="M76.0919 16.9354C75.6545 17.1598 75.1581 16.7665 75.2465 16.2645L76.1871 10.904L72.1945 7.10066C71.8217 6.74481 72.0155 6.0943 72.5153 6.02403L78.0661 5.23526L80.5413 0.331489C80.7645 -0.110496 81.3686 -0.110496 81.5918 0.331489L84.0669 5.23526L89.6178 6.02403C90.1176 6.0943 90.3114 6.74481 89.9374 7.10066L85.9459 10.904L86.8866 16.2645C86.975 16.7665 86.4786 17.1598 86.0411 16.9354L81.0648 14.3787L76.0908 16.9354H76.0919Z" fill="#FFAE00"/>
</g>
<g id="Group_5">
<path id="Vector_5" d="M100.092 16.9354C99.6545 17.1598 99.1581 16.7665 99.2465 16.2645L100.187 10.904L96.1945 7.10066C95.8217 6.74481 96.0155 6.0943 96.5153 6.02403L102.066 5.23526L104.541 0.331489C104.765 -0.110496 105.369 -0.110496 105.592 0.331489L108.067 5.23526L113.618 6.02403C114.118 6.0943 114.311 6.74481 113.937 7.10066L109.946 10.904L110.887 16.2645C110.975 16.7665 110.479 17.1598 110.041 16.9354L105.065 14.3787L100.091 16.9354H100.092Z" fill="#FFAE00"/>
</g>
</g>
</svg>
